<?xml version="1.0" standalone="no"?>
<!DOCTYPE svg PUBLIC "-//W3C//DTD SVG 20010904//EN"
 "http://www.w3.org/TR/2001/REC-SVG-20010904/DTD/svg10.dtd">
<svg version="1.0" xmlns="http://www.w3.org/2000/svg"
 width="300.000000pt" height="299.000000pt" viewBox="0 0 300.000000 299.000000"
 preserveAspectRatio="xMidYMid meet">
<metadata>
Created by potrace 1.10, written by Peter Selinger 2001-2011
</metadata>
<g transform="translate(0.000000,299.000000) scale(0.100000,-0.100000)"
fill="#000000" stroke="none">
<path d="M47 1500 l3 -1450 1450 -3 1450 -2 0 1453 0 1452 -1452 0 -1453 0 2
-1450z m593 1140 l0 -280 -285 0 -285 0 0 280 0 280 285 0 285 0 0 -280z m570
0 l0 -280 -280 0 -280 0 0 280 0 280 280 0 280 0 0 -280z m570 0 l0 -280 -280
0 -280 0 0 280 0 280 280 0 280 0 0 -280z m570 0 l0 -280 -280 0 -280 0 0 280
0 280 280 0 280 0 0 -280z m570 0 l0 -280 -280 0 -280 0 0 280 0 280 280 0
280 0 0 -280z m-2280 -570 l0 -280 -285 0 -285 0 0 280 0 280 285 0 285 0 0
-280z m570 0 l0 -280 -280 0 -280 0 0 280 0 280 280 0 280 0 0 -280z m570 0
l0 -280 -280 0 -280 0 0 280 0 280 280 0 280 0 0 -280z m570 0 l0 -280 -280 0
-280 0 0 280 0 280 280 0 280 0 0 -280z m570 0 l0 -280 -280 0 -280 0 0 280 0
280 280 0 280 0 0 -280z m-2280 -570 l0 -280 -285 0 -285 0 0 280 0 280 285 0
285 0 0 -280z m570 0 l0 -280 -280 0 -280 0 0 280 0 280 280 0 280 0 0 -280z
m570 0 l0 -280 -280 0 -280 0 0 280 0 280 280 0 280 0 0 -280z m570 0 l0 -280
-280 0 -280 0 0 280 0 280 280 0 280 0 0 -280z m570 0 l0 -280 -280 0 -280 0
0 280 0 280 280 0 280 0 0 -280z m-2280 -570 l0 -280 -285 0 -285 0 0 280 0
280 285 0 285 0 0 -280z m570 0 l0 -280 -280 0 -280 0 0 280 0 280 280 0 280
0 0 -280z m570 0 l0 -280 -280 0 -280 0 0 280 0 280 280 0 280 0 0 -280z m570
0 l0 -280 -280 0 -280 0 0 280 0 280 280 0 280 0 0 -280z m570 0 l0 -280 -280
0 -280 0 0 280 0 280 280 0 280 0 0 -280z m-2280 -575 l0 -285 -285 0 -285 0
0 285 0 285 285 0 285 0 0 -285z m570 0 l0 -285 -280 0 -280 0 0 285 0 285
280 0 280 0 0 -285z m570 0 l0 -285 -280 0 -280 0 0 285 0 285 280 0 280 0 0
-285z m570 0 l0 -285 -280 0 -280 0 0 285 0 285 280 0 280 0 0 -285z m570 0
l0 -285 -280 0 -280 0 0 285 0 285 280 0 280 0 0 -285z"/>
</g>
</svg>
