<svg width="800" height="800" viewBox="0 0 800 800" fill="none" xmlns="http://www.w3.org/2000/svg">
<path d="M700 0H100C44.7715 0 0 44.7715 0 100V700C0 755.228 44.7715 800 100 800H700C755.228 800 800 755.228 800 700V100C800 44.7715 755.228 0 700 0Z" fill="white"/>
<path d="M143.213 696.32H616.8C619.415 696.32 621.925 695.278 623.774 693.429C625.623 691.58 626.665 689.07 626.665 686.455V420.069H606.93V676.589H153.077V212.869H232.009C234.623 212.869 237.134 211.832 238.983 209.978C240.837 208.129 241.873 205.619 241.873 203.004V124.072H606.927V222.739H626.661V114.208C626.661 111.593 625.62 109.083 623.771 107.229C621.922 105.38 619.411 104.343 616.797 104.343H232.01C231.802 104.343 231.614 104.453 231.406 104.463V104.458C230.531 104.515 229.666 104.692 228.833 104.974C228.526 105.083 228.224 105.161 227.927 105.302V105.296C226.849 105.776 225.869 106.442 225.036 107.27L136.239 196.068C135.411 196.906 134.744 197.886 134.265 198.958C134.124 199.266 134.046 199.563 133.937 199.875C133.655 200.703 133.483 201.563 133.426 202.432C133.426 202.651 133.306 202.839 133.306 203.042V686.455C133.306 689.075 134.353 691.591 136.213 693.445C138.067 695.294 140.588 696.331 143.213 696.32ZM222.145 138.027V193.141H167.031L222.145 138.027Z" fill="black"/>
<path d="M409.6 420.067V429.931H429.335L429.329 410.202C429.329 407.582 428.293 405.072 426.444 403.223C424.59 401.374 422.079 400.332 419.465 400.332H370.131V360.868H488.527V301.671H527.991V311.535H547.726V173.415C547.726 170.801 546.69 168.29 544.835 166.436C542.986 164.587 540.476 163.551 537.861 163.551H478.664C473.216 163.551 468.8 167.967 468.8 173.415V281.942H370.133V232.614C370.133 229.994 369.096 227.489 367.247 225.635C365.393 223.786 362.888 222.749 360.268 222.749H301.071C295.623 222.749 291.206 227.166 291.206 232.614V281.947L182.676 281.942C177.228 281.942 172.811 286.364 172.811 291.811V351.009C172.811 353.623 173.853 356.134 175.702 357.983C177.551 359.832 180.061 360.873 182.676 360.873H291.207V400.337H182.676C177.228 400.337 172.811 404.754 172.811 410.207V469.405C172.811 472.019 173.853 474.53 175.702 476.379C177.551 478.227 180.061 479.269 182.676 479.269H291.207V528.603C291.207 531.217 292.243 533.728 294.097 535.577C295.946 537.425 298.457 538.467 301.071 538.467H360.269C362.888 538.467 365.394 537.426 367.248 535.577C369.097 533.728 370.133 531.217 370.133 528.603V479.269H389.868V459.535H370.133V420.071L409.6 420.067ZM468.797 341.135H429.328V301.671H468.792L468.797 341.135ZM527.995 183.281V222.745L488.525 222.751V183.281L527.995 183.281ZM488.531 242.479H527.995V281.943H488.525L488.531 242.479ZM409.599 301.676V341.14H370.129V301.676H409.599ZM350.401 341.14H310.932V301.676H350.396L350.401 341.14ZM310.932 242.479H350.396V281.943H310.932V242.479ZM192.541 301.676H232.005V341.14H192.541V301.676ZM251.739 341.14V301.676H291.203V341.14H251.739ZM310.936 360.875H350.4V400.339H310.931L310.936 360.875ZM192.54 420.072H232.004V459.536H192.54V420.072ZM251.737 459.536V420.072H291.201V459.536H251.737ZM350.399 518.733H310.929V479.269H350.393L350.399 518.733ZM350.399 459.536H310.929V420.072H350.393L350.399 459.536Z" fill="black"/>
<path d="M172.813 558.2H192.548V577.935H172.813V558.2Z" fill="black"/>
<path d="M172.813 597.667H192.548V617.401H172.813V597.667Z" fill="black"/>
<path d="M172.813 637.12H192.548V656.855H172.813V637.12Z" fill="black"/>
<path d="M212.28 558.2H271.477V577.935H212.28V558.2Z" fill="black"/>
<path d="M212.28 597.667H320.811V617.401H212.28V597.667Z" fill="black"/>
<path d="M212.28 637.12H251.744V656.855H212.28V637.12Z" fill="black"/>
<path d="M271.48 637.12H320.813V656.855H271.48V637.12Z" fill="black"/>
<path d="M429.333 558.2H449.068V577.935H429.333V558.2Z" fill="black"/>
<path d="M429.333 597.667H449.068V617.401H429.333V597.667Z" fill="black"/>
<path d="M429.333 637.12H449.068V656.855H429.333V637.12Z" fill="black"/>
<path d="M468.8 558.2H577.331V577.935H468.8V558.2Z" fill="black"/>
<path d="M468.8 597.667H577.331V617.401H468.8V597.667Z" fill="black"/>
<path d="M468.8 637.12H547.732V656.855H468.8V637.12Z" fill="black"/>
<path d="M271.48 143.813H310.944V163.548H271.48V143.813Z" fill="black"/>
<path d="M330.667 143.813H409.599V163.548H330.667V143.813Z" fill="black"/>
<path d="M271.48 183.28H409.613V203.015H271.48V183.28Z" fill="black"/>
<path d="M713.04 288.147C713.238 287.912 713.524 287.782 713.691 287.527L717.951 281.131C725.514 269.782 727.373 255.563 722.983 242.652C718.592 229.741 708.452 219.6 695.535 215.215C682.623 210.824 668.404 212.689 657.056 220.257L650.681 224.507C650.426 224.673 650.296 224.96 650.072 225.147V225.152C649.759 225.33 649.462 225.527 649.176 225.741L422.362 452.554C421.18 453.742 420.31 455.205 419.847 456.815L400.112 525.877V525.883C399.263 528.857 399.857 532.065 401.722 534.539C403.591 537.008 406.508 538.461 409.607 538.461C410.518 538.461 411.43 538.331 412.31 538.075L481.373 518.341C482.987 517.888 484.461 517.023 485.644 515.835L712.497 289.022C712.7 288.741 712.882 288.444 713.044 288.142L713.04 288.147ZM698.504 239.693C701.905 243.11 704.212 247.459 705.129 252.193C706.046 256.928 705.535 261.824 703.655 266.261L671.937 234.584C676.374 232.704 681.27 232.183 685.999 233.094C690.728 234.006 695.082 236.303 698.504 239.693ZM443.283 459.533L626.549 276.267L661.929 311.647L478.663 494.913L443.283 459.533ZM434.215 478.367L459.866 504.017L424.002 514.267L434.215 478.367ZM675.882 297.727L640.47 262.32L656.115 246.675L691.495 282.055L675.882 297.727Z" fill="black"/>
</svg>
