<?xml version="1.0" encoding="UTF-8"?>
<svg width="752pt" height="752pt" version="1.1" viewBox="0 0 752 752" xmlns="http://www.w3.org/2000/svg">
 <g>
  <path d="m405.6 346.4h-74v29.598h37c1.9609 0 3.8438 0.78125 5.2344 2.168 1.3867 1.3867 2.1641 3.2695 2.1641 5.2344v26.535l29.598-29.598z"/>
  <path d="m398.88 453.73-19.211-19.207-7.6875 26.895z"/>
  <path d="m331.6 390.8h29.598v29.598h-29.598z"/>
  <path d="m331.6 302h29.598v29.598h-29.598z"/>
  <path d="m376 302h29.598v29.598h-29.598z"/>
  <path d="m420.4 213.21h29.598v29.598h-29.598z"/>
  <path d="m220.61 179.27-41.336 41.336h41.336z"/>
  <path d="m420.4 257.61h29.598v29.598h-29.598z"/>
  <path d="m415.03 464.51-51.797 14.801c-0.66016 0.19141-1.3438 0.28906-2.0273 0.28906-2.3242 0-4.5117-1.0898-5.9141-2.9414-1.3984-1.8555-1.8438-4.2617-1.207-6.4922l9.9922-34.965h-32.473v37c0 1.9609-0.77734 3.8438-2.1641 5.2305-1.3906 1.3867-3.2695 2.168-5.2344 2.168h-44.398c-4.0859 0-7.3984-3.3125-7.3984-7.3984v-37h-81.398c-4.0859 0-7.3984-3.3125-7.3984-7.3984v-44.398c0-4.0898 3.3125-7.4023 7.3984-7.4023h81.398v-29.598h-81.398c-4.0859 0-7.3984-3.3125-7.3984-7.3984v-44.398c0-4.0859 3.3125-7.4023 7.3984-7.4023h81.398v-36.996c0-4.0859 3.3125-7.3984 7.3984-7.3984h44.398c1.9648 0 3.8438 0.77734 5.2344 2.1641 1.3867 1.3906 2.1641 3.2695 2.1641 5.2344v37l74-0.003906v-81.395c0-4.0859 3.3125-7.3984 7.3984-7.3984h44.398c1.9609 0 3.8438 0.77734 5.2305 2.1641 1.3906 1.3906 2.168 3.2734 2.168 5.2344v115.33l44.398-44.398v-107.93h-273.79v59.199c0 1.9609-0.77734 3.8438-2.168 5.2305-1.3867 1.3906-3.2695 2.168-5.2305 2.168h-59.199v347.79h340.39v-211.53l-90.965 90.965c-0.88672 0.89062-1.9922 1.5391-3.2031 1.8789zm-113.02-280.9h59.199v14.801h-59.199zm-44.398 0h29.598v14.801h-29.598zm0 29.598h103.6v14.801h-103.6zm-44.398 281.19h44.398v14.801l-44.398-0.003907zm-14.797 73.996h-14.801v-14.801h14.801zm0-29.598-14.801-0.003906v-14.797h14.801zm0-29.598-14.801-0.003907v-14.797h14.801zm44.398 59.199-29.602-0.003907v-14.801h29.598zm51.797 0-37-0.003907v-14.801h37zm0-29.598-81.398-0.007812v-14.797h81.398zm96.195 29.598-14.801-0.003907v-14.801h14.801zm0-29.598-14.801-0.007812v-14.797h14.801zm0-29.598-14.801-0.007813v-14.797h14.801zm73.996 59.199-59.195-0.007813v-14.801h59.199zm22.199-29.598-81.395-0.011719v-14.797h81.395zm0-29.598-81.395-0.011719v-14.797h81.395z"/>
  <path d="m420.4 302h29.598v29.598h-29.598z"/>
  <path d="m420.4 365.54 19.137-19.137h-19.137z"/>
  <path d="m198.41 390.8h29.598v29.598h-29.598z"/>
  <path d="m198.41 302h29.598v29.598h-29.598z"/>
  <path d="m242.81 390.8h29.598v29.598h-29.598z"/>
  <path d="m462.63 344.23-76.164 76.164 26.535 26.535 137.45-137.45-26.535-26.535z"/>
  <path d="m577.88 255.52c-2.5625-2.5508-5.8242-4.2773-9.375-4.9648-3.5469-0.6875-7.2227-0.30469-10.551 1.1016l23.762 23.789c1.4102-3.3242 1.8008-6.9961 1.1172-10.547-0.68359-3.5469-2.4062-6.8125-4.9531-9.3789z"/>
  <path d="m534.38 272.49 11.734-11.734 26.535 26.535-11.734 11.734z"/>
  <path d="m287.2 346.4h29.598v29.598h-29.598z"/>
  <path d="m287.2 390.8h29.598v29.598h-29.598z"/>
  <path d="m287.2 435.2h29.598v29.598h-29.598z"/>
  <path d="m242.81 302h29.598v29.598h-29.598z"/>
  <path d="m287.2 302h29.598v29.598h-29.598z"/>
  <path d="m287.2 257.61h29.598v29.598h-29.598z"/>
 </g>
</svg>
