<?xml version="1.0" encoding="UTF-8"?>
<svg width="752pt" height="752pt" version="1.1" viewBox="0 0 752 752" xmlns="http://www.w3.org/2000/svg">
 <g>
  <path d="m161.41 597.99h355.19c1.9609 0 3.8438-0.78125 5.2305-2.168s2.168-3.2695 2.168-5.2305v-199.79h-14.801v192.39h-340.39v-347.79h59.199c1.9609 0 3.8438-0.77734 5.2305-2.168 1.3906-1.3867 2.168-3.2695 2.168-5.2305v-59.199h273.79v74h14.801v-81.398c0-1.9609-0.78125-3.8438-2.168-5.2344-1.3867-1.3867-3.2695-2.1641-5.2305-2.1641h-288.59c-0.15625 0-0.29687 0.082031-0.45312 0.089843v-0.003906c-0.65625 0.042969-1.3047 0.17578-1.9297 0.38672-0.23047 0.082031-0.45703 0.14062-0.67969 0.24609v-0.003907c-0.80859 0.35938-1.543 0.85938-2.168 1.4805l-66.598 66.598c-0.62109 0.62891-1.1211 1.3633-1.4805 2.168-0.10547 0.23047-0.16406 0.45312-0.24609 0.6875-0.21094 0.62109-0.33984 1.2656-0.38281 1.918 0 0.16406-0.089843 0.30469-0.089843 0.45703v362.56c0 1.9648 0.78516 3.8516 2.1797 5.2422 1.3906 1.3867 3.2812 2.1641 5.25 2.1562zm59.199-418.72v41.336h-41.336z"/>
  <path d="m361.2 390.8v7.3984h14.801l-0.003906-14.797c0-1.9648-0.77734-3.8477-2.1641-5.2344-1.3906-1.3867-3.2734-2.168-5.2344-2.168h-37v-29.598h88.797v-44.398h29.598v7.3984h14.801v-103.59c0-1.9609-0.77734-3.8438-2.168-5.2344-1.3867-1.3867-3.2695-2.1641-5.2305-2.1641h-44.398c-4.0859 0-7.3984 3.3125-7.3984 7.3984v81.395h-74v-36.996c0-1.9648-0.77734-3.8438-2.1641-5.2344-1.3906-1.3867-3.2695-2.1641-5.2344-2.1641h-44.398c-4.0859 0-7.3984 3.3125-7.3984 7.3984v37l-81.398-0.003906c-4.0859 0-7.3984 3.3164-7.3984 7.4023v44.398c0 1.9609 0.78125 3.8438 2.168 5.2305 1.3867 1.3867 3.2695 2.168 5.2305 2.168h81.398v29.598h-81.398c-4.0859 0-7.3984 3.3125-7.3984 7.4023v44.398c0 1.9609 0.78125 3.8438 2.168 5.2305 1.3867 1.3867 3.2695 2.168 5.2305 2.168h81.398v37c0 1.9609 0.77734 3.8438 2.168 5.2305 1.3867 1.3867 3.2695 2.168 5.2305 2.168h44.398c1.9648 0 3.8438-0.78125 5.2344-2.168 1.3867-1.3867 2.1641-3.2695 2.1641-5.2305v-37h14.801v-14.801h-14.801v-29.598zm44.398-59.199h-29.602v-29.598h29.598zm44.398-118.39v29.598l-29.602 0.003906v-29.602zm-29.598 44.398h29.598v29.598h-29.602zm-59.199 44.398v29.598h-29.602v-29.598zm-44.398 29.598h-29.602v-29.598h29.598zm-29.602-73.996h29.598v29.598h-29.598zm-88.793 44.398h29.598v29.598h-29.598zm44.398 29.598v-29.598h29.598v29.598zm44.398 14.801h29.598v29.598h-29.602zm-88.797 44.398h29.598v29.598h-29.598zm44.398 29.598v-29.598h29.598v29.598zm73.996 44.398h-29.602v-29.598h29.598zm0-44.398h-29.602v-29.598h29.598z"/>
  <path d="m183.61 494.4h14.801v14.801h-14.801z"/>
  <path d="m183.61 524h14.801v14.801h-14.801z"/>
  <path d="m183.61 553.59h14.801v14.801h-14.801z"/>
  <path d="m213.21 494.4h44.398v14.801h-44.398z"/>
  <path d="m213.21 524h81.398v14.801h-81.398z"/>
  <path d="m213.21 553.59h29.598v14.801h-29.598z"/>
  <path d="m257.61 553.59h37v14.801h-37z"/>
  <path d="m376 494.4h14.801v14.801h-14.801z"/>
  <path d="m376 524h14.801v14.801h-14.801z"/>
  <path d="m376 553.59h14.801v14.801h-14.801z"/>
  <path d="m405.6 494.4h81.398v14.801h-81.398z"/>
  <path d="m405.6 524h81.398v14.801h-81.398z"/>
  <path d="m405.6 553.59h59.199v14.801h-59.199z"/>
  <path d="m257.61 183.61h29.598v14.801h-29.598z"/>
  <path d="m302 183.61h59.199v14.801h-59.199z"/>
  <path d="m257.61 213.21h103.6v14.801h-103.6z"/>
  <path d="m588.78 291.86c0.14844-0.17578 0.36328-0.27344 0.48828-0.46484l3.1953-4.7969c5.6719-8.5117 7.0664-19.176 3.7734-28.859-3.293-9.6836-10.898-17.289-20.586-20.578-9.6836-3.293-20.348-1.8945-28.859 3.7812l-4.7812 3.1875c-0.19141 0.125-0.28906 0.33984-0.45703 0.48047v0.003906c-0.23438 0.13281-0.45703 0.28125-0.67188 0.44141l-170.11 170.11c-0.88672 0.89062-1.5391 1.9883-1.8867 3.1953l-14.801 51.797v0.003906c-0.63672 2.2305-0.19141 4.6367 1.207 6.4922 1.4023 1.8516 3.5898 2.9414 5.9141 2.9414 0.68359 0 1.3672-0.097656 2.0273-0.28906l51.797-14.801c1.2109-0.33984 2.3164-0.98828 3.2031-1.8789l170.14-170.11c0.15234-0.21094 0.28906-0.43359 0.41016-0.66016zm-10.898-36.34h-0.003906c2.5508 2.5625 4.2812 5.8242 4.9688 9.375s0.30469 7.2227-1.1055 10.551l-23.789-23.758c3.3281-1.4102 7-1.8008 10.547-1.1172 3.5469 0.68359 6.8125 2.4062 9.3789 4.9492zm-191.42 164.88 137.45-137.45 26.535 26.535-137.45 137.45zm-6.8008 14.125 19.238 19.238-26.898 7.6875zm181.25-135.48-26.559-26.555 11.734-11.734 26.535 26.535z"/>
 </g>
</svg>
