<?xml version="1.0" encoding="UTF-8"?>
<svg width="752pt" height="752pt" version="1.1" viewBox="0 0 752 752" xmlns="http://www.w3.org/2000/svg">
 <defs>
  <clipPath id="a">
   <path d="m139.21 221h473.58v310h-473.58z"/>
  </clipPath>
 </defs>
 <path d="m468.29 342.91c3.3008-0.78125 6.1367-2.8945 7.8281-5.8359 1.6914-2.9453 2.0898-6.457 1.1016-9.7031-0.80859-3.3047-2.9102-6.1484-5.832-7.8906-2.918-1.7461-6.418-2.2461-9.7109-1.3867-3.2734 0.83984-6.0703 2.9688-7.75 5.9023-1.6836 2.9336-2.1055 6.4219-1.1797 9.6719 1.8164 6.7891 8.7109 10.887 15.543 9.2422z"/>
 <path d="m492.48 358.18c-7.0312 0-13.773 2.793-18.746 7.7656-4.9727 4.9727-7.7656 11.715-7.7656 18.746s2.793 13.777 7.7656 18.746c4.9727 4.9727 11.715 7.7656 18.746 7.7656s13.773-2.793 18.746-7.7656c4.9727-4.9688 7.7656-11.715 7.7656-18.746 0.019531-7.0352-2.7695-13.789-7.7461-18.766-4.9727-4.9766-11.73-7.7617-18.766-7.7461zm0 46.691c-5.3516 0-10.484-2.125-14.27-5.9102-3.7812-3.7852-5.9102-8.918-5.9102-14.27s2.1289-10.484 5.9102-14.266c3.7852-3.7852 8.918-5.9102 14.27-5.9102s10.484 2.125 14.27 5.9102c3.7812 3.7812 5.9102 8.9141 5.9102 14.266 0.035157 5.3633-2.0781 10.52-5.8711 14.309-3.793 3.793-8.9453 5.9062-14.309 5.8711z"/>
 <path d="m557.17 307.71c9.9609 10.73 9.3398 27.504-1.3867 37.469-10.73 9.9648-27.504 9.3438-37.469-1.3867s-9.3438-27.504 1.3867-37.469c10.73-9.9609 27.504-9.3398 37.469 1.3867"/>
 <g clip-path="url(#a)">
  <path d="m612.07 359.91c1.0742-8.418 0.98047-16.941-0.27734-25.336-4.9141-27.102-29.973-46.691-60.223-55.379-24.781-6.9219-68.562-14.121-99.68 2.8711v0.003906c-3.668 2.0117-7.0234 4.543-9.9688 7.5117v-68.391h-243.87v119.13h-58.84v126.61h58.84v59.668h67.18v-59.668h117.68v-119.03h41.531c1.3906 15.738 4.1602 31.328 8.2734 46.586 2.6641 8.9219 5.8438 17.68 9.5195 26.234 2.5977 6.0586 10.07 35.441 8.0625 52.434-3.1484 25.922-23.641 41.531-33.711 49.562v0.003906c-1.3984 1.1133-2.0195 2.9414-1.5859 4.6758s1.8359 3.0586 3.5938 3.3867h105.74c1.7891 0.36719 3.625-0.38281 4.6445-1.9023 1.0156-1.5195 1.0156-3.5039-0.007812-5.0195-5.4688-7.9844-6.4492-18.223-2.5977-27.102 2.0078-4.6016 4.0156-6.6094 9.4844-4.293v0.003906c7.3203 3.4023 14.945 6.1055 22.773 8.0625 5.4688 1.1406 6.6094 1.418 12.668-2.3203 2.6367-1.3633 4.793-3.5 6.1836-6.1211 1.3906-2.6211 1.9492-5.6055 1.6055-8.5508-0.58984-6.6445-0.86719-8.0977 0.58984-11.25 0.86719-2.0078 3.7383-4.0508 4.6016-7.1992 0.27734-0.58984-5.7812-2.043-5.7812-2.5977 0-0.55469 6.332-0.58984 6.6445-1.1406 0.86719-2.9062 0.27734-6.0586 1.1406-8.9648 1.4531-5.7461 4.3281-12.078 9.5195-12.355 1.9844-0.32031 3.918-0.90234 5.7461-1.7305 3.4414-1.3398 5.2266-5.1484 4.0508-8.6523-2.5977-11.801-6.0586-18.449-8.375-30.25-0.78125-2.5547-0.67188-5.3008 0.30859-7.7891 7.6172-10.07 12.391-4.8789 14.539-31.703zm-406.4-131.18h51.223v51.918h-51.223zm0 59.566h51.223v51.918h-51.223zm51.223 119.16v51.918h-50.531v-51.918zm-58.84 51.918h-51.289v-51.918h51.293zm0.65625-59.566h-51.918v-51.918h51.918zm58.84 119.13h-51.918l0.003906-52.016h51.918zm58.355-59.457h-50.668v-51.918h50.668zm0-59.566h-51.363v-51.918h51.363zm0-59.602h-50.668v-51.918l50.668 0.003906zm8.2383-111.59h50.637v51.918h-50.637zm0 59.566h50.637v51.918h-50.637zm51.328 111.62h-51.328v-51.918h51.328zm7.5469-171.19h51.328v51.918h-51.328zm0 111.59v-51.918l51.328 0.003906v11.004c-6.2422 11.215-9.707 23.758-10.109 36.586-0.070313 1.4414-0.070313 2.8828 0 4.3242zm69.223 10.105 1.7305-4.6016h-0.003906c0.26953-0.64062 0.015624-1.3828-0.58594-1.7305-0.27734-0.3125-0.55469-0.58984-0.55469-0.86719v0.003906c-0.45703-0.44922-1.0938-0.66797-1.7305-0.58984l-4.3281 1.7305c-0.86719 0.27734-1.7305 0.27734-2.0078-0.86719h0.003906c-0.54297-0.92578-1.0273-1.8867-1.457-2.8711-0.27734-0.58984 0.27734-1.4531 0.58984-2.043l4.6016-3.7383c-0.34375-1.0156-0.54297-2.0742-0.58594-3.1484l-5.7461-1.7305h-0.17188v-5.8828c0.32812-0.19141 0.67578-0.33984 1.0391-0.44922h4.6016c0.55469 0 1.418-0.58984 1.418-0.86719 0-0.27734 0.3125-0.86719 0.3125-1.1758 0.35547-0.57422 0.21875-1.3203-0.3125-1.7305l-2.8711-3.7383c-0.63281-0.59766-0.74609-1.5547-0.27734-2.2852 0.69922-0.83203 1.4648-1.6055 2.2852-2.3203 0.59766-0.64844 1.582-0.76562 2.3164-0.27344l4.3281 2.8711c0.54297 0.28125 1.1875 0.28125 1.7305 0 0.58984-0.27734 0.86719-0.58984 1.1406-0.58984 0.56641-0.39062 0.89453-1.043 0.86719-1.7305l-0.27734-4.6016c-0.3125-0.86719 0.27734-1.4531 1.1406-1.7305 0.49219-0.066406 0.97656-0.16016 1.4531-0.27734 0.44141-0.22656 0.92969-0.33203 1.4219-0.3125 0.38672-0.14453 0.82422-0.09375 1.168 0.14062s0.55469 0.62109 0.5625 1.0391l1.4531 4.6016c0.25 0.60938 0.80078 1.043 1.4531 1.1406 0.55469-0.27734 0.86719 0 1.1406 0 0.6875 0.015625 1.332-0.30859 1.7305-0.86328l2.5977-3.7383c0.35938-0.75 1.2148-1.1211 2.0078-0.86719 0.98438 0.42969 1.9453 0.91406 2.8711 1.457 0.58984 0.55469 1.1758 1.418 0.86719 2.0078l-1.418 4.6016c-0.27344 0.63281-0.039062 1.3711 0.55078 1.7305 0.3125 0.27734 0.58984 0.58984 0.58984 0.86719v-0.003907c0.45312 0.45312 1.0938 0.67188 1.7305 0.58984l4.6016-1.7305c0.86719-0.3125 1.7305-0.3125 2.0078 0.86719 0.53906 0.92578 1.0273 1.8867 1.4531 2.8711 0.27734 0.58984-0.27734 1.4531-0.58984 2.0078l-5.2227 3.7383c0.39062 0.91406 0.5 1.9297 0.3125 2.9062l5.7461 1.7305h-0.003907c0.875 0.089844 1.5156 0.85547 1.457 1.7305-0.046875 1.0742-0.24609 2.1328-0.58984 3.1484-0.27734 0.86719-0.86719 1.1406-1.7305 1.4531h-4.6367c-0.58984 0-1.4531 0.55469-1.4531 0.86719s-0.27734 0.86719-0.27734 1.1406c0 0.27734-0.27734 1.4531 0.27734 1.7305l2.9062 3.7383c0.63672 0.60938 0.75 1.582 0.27734 2.3203-0.69531 0.83984-1.4727 1.6055-2.3203 2.2852-0.55469 1.1758-1.418 1.1758-2.0078 0.58984l-3.7383-2.5977c-0.54297-0.28516-1.1875-0.28516-1.7305 0-0.58984 0.27734-0.86719 0.58984-1.1406 0.58984v-0.003906c-0.56641 0.39062-0.89453 1.0469-0.86719 1.7344l0.27734 4.6016c0.27734 0.86719-0.27734 1.4531-1.1406 1.7305-0.49219 0.0625-0.97656 0.15625-1.4531 0.27734-0.45313 0.22656-0.95313 0.33203-1.457 0.3125-0.38281 0.12891-0.80859 0.070312-1.1445-0.16016-0.33594-0.23438-0.53906-0.60938-0.55078-1.0195l-1.4531-4.6016c-0.25-0.60938-0.80078-1.043-1.4531-1.1406-0.55469 0.27734-0.86719 0-1.1406 0-0.6875-0.027343-1.3398 0.29688-1.7305 0.86328l-2.5977 3.7383c-0.36719 0.73828-1.2148 1.1055-2.0078 0.86328-0.98438-0.42578-1.9453-0.91016-2.8711-1.4531-1.1758-0.55078-1.7305-1.418-1.4531-2.2812zm78.672 42.051c0 0.27734-0.3125 0.58984-0.3125 0.86719s-0.27734 0.58984-0.27734 0.86719h-0.003906c-0.17188 0.82422-0.88672 1.4258-1.7305 1.4531l-4.0508-0.3125h0.003906c-0.75391 0.03125-1.4258 0.48828-1.7305 1.1797-0.54297 1.4844-1.2109 2.9219-2.0078 4.2891-0.24219 0.30859-0.34375 0.70312-0.28516 1.0898 0.058593 0.38672 0.27344 0.73047 0.59766 0.95312l2.8711 3.1484c0.51172 0.66406 0.61719 1.5547 0.27734 2.3203-0.28516 0.54297-0.67187 1.0273-1.1445 1.418-0.51953 0.74219-1.5039 0.99219-2.3164 0.58984l-3.7383-2.0078c-0.66016-0.35156-1.4688-0.23828-2.0078 0.27734-1.1758 1.1406-2.3203 2.0078-3.7734 3.1836-0.83203 0.55469-0.83203 1.1406-0.83203 2.0078l1.1406 4.0508h0.003906c0.21094 0.78516-0.14844 1.6172-0.86719 2.0039l-1.7305 0.86719c-0.86719 0.27734-1.7305 0.27734-2.0078-0.58984l-2.3203-3.4609h0.003907c-0.47656-0.60156-1.2891-0.82422-2.0078-0.55078-1.5 0.50391-3.0391 0.88672-4.6016 1.1406-0.86719 0.27734-1.4531 0.86719-1.4531 1.4531l-0.58984 4.0156c-0.17578 0.82422-0.89062 1.4219-1.7305 1.4531h-1.7305c-0.83984-0.042969-1.5469-0.63672-1.7305-1.4531l-0.86719-4.0156c-0.27734-0.86719-0.83203-1.4531-1.418-1.4531-0.58984 0-1.4531-0.27734-2.3203-0.58984s-1.418-0.27734-2.2852-0.55469c-0.86719-0.27734-1.4531 0.27734-2.043 0.86719l-2.2852 3.4609h0.003906c-0.49219 0.57812-1.2812 0.8125-2.0078 0.58984l-1.7305-0.86719c-0.46094-0.14062-0.84766-0.46484-1.0664-0.89453-0.22266-0.42969-0.26172-0.92969-0.10938-1.3906l1.1758-4.0508c0.27734-0.86719-0.3125-1.4531-0.86719-2.0078l0.003906 0.003907c-1.3711-0.80078-2.6406-1.7656-3.7734-2.875-0.22266-0.30859-0.5625-0.51953-0.9375-0.57812-0.37891-0.058594-0.76562 0.039062-1.0703 0.26953l-3.4609 2.0078c-0.71875 0.51562-1.7109 0.39453-2.2852-0.27734-0.46484-0.41016-0.85938-0.88672-1.1758-1.4219-0.55078-0.67188-0.55078-1.6406 0-2.3164l2.9062-3.1836c0.49609-0.55078 0.60547-1.3477 0.27734-2.0078-0.79688-1.3789-1.4688-2.8281-2.0078-4.3281-0.28516-0.69922-0.97266-1.1562-1.7305-1.1406l-4.1172 0.24219c-0.87109 0.078125-1.6406-0.55078-1.7305-1.418-0.27734-0.58984-0.27734-1.1758-0.55469-1.7305-0.24609-0.87891 0.26562-1.793 1.1406-2.043l3.7383-1.7305c0.70313-0.26562 1.1602-0.94531 1.1445-1.6953-0.14062-1.543-0.14062-3.0977 0-4.6406 0.3125-0.86719-0.27734-1.418-1.1406-1.7305l-4.0156-1.418h-0.003906c-0.78516-0.34375-1.2617-1.1523-1.1758-2.0078 0-0.3125 0.3125-0.58984 0.3125-0.86719s0.27734-0.58984 0.27734-0.86719v0.003906c0.17188-0.82422 0.88672-1.4258 1.7305-1.4531l4.0156 0.27734c0.75-0.007812 1.4297-0.45312 1.7305-1.1445 0.56641-1.4922 1.2461-2.9375 2.0391-4.3242 0.24219-0.30078 0.34375-0.69141 0.28516-1.0703-0.058593-0.38281-0.27734-0.72266-0.59375-0.9375l-2.8711-3.1836h-0.003907c-0.54297-0.63672-0.65234-1.5391-0.27734-2.2852 0.28125-0.55469 0.66797-1.0508 1.1445-1.4531 0.51953-0.74219 1.5039-0.99219 2.3164-0.58984l4.0156 1.7305c0.86719 0.3125 1.4531 0.3125 2.0078-0.27734 1.1758-1.1406 2.3203-2.0078 3.7734-3.1836 0.86719-0.55469 0.86719-1.1406 0.86719-2.0078l-1.1758-4.0156-0.003906 0.003906c-0.20312-0.80078 0.15234-1.6328 0.86719-2.043l1.7305-0.86719c0.86719-0.27734 1.7305-0.27734 2.0078 0.58984l2.3203 3.4609h-0.003906c0.46875 0.61328 1.2812 0.85156 2.0078 0.58984 1.5117-0.52344 3.0625-0.91797 4.6367-1.1797 0.86719-0.27734 1.418-0.86719 1.418-1.418l0.58984-4.0508c0.17969-0.81641 0.89453-1.4062 1.7305-1.418h1.7305c0.83203 0.027344 1.543 0.60938 1.7305 1.418l0.27734 4.3281c0.27734 0.86719 0.86719 1.4531 1.4531 1.4531 0.58984 0 1.418 0.27734 2.2852 0.55469 0.73047 0.33984 1.5156 0.53906 2.3203 0.58594 0.76563 0.027344 1.5-0.28906 2.0078-0.86328l2.3203-3.4609h-0.003907c0.48828-0.58594 1.2812-0.82031 2.0078-0.58984l1.7305 0.86719c0.74609 0.38281 1.1094 1.2422 0.86719 2.043l-1.1094 4.0117c-0.3125 0.86719 0.27734 1.4531 0.86719 2.0078 1.3594 0.80859 2.6172 1.7891 3.7383 2.9102 0.22656 0.30469 0.56641 0.50781 0.94531 0.55859 0.375 0.050781 0.75781-0.050781 1.0625-0.28516l3.7383-2.0078-0.003907 0.003907c0.73047-0.52344 1.7344-0.40234 2.3203 0.27344 0.46484 0.41406 0.85156 0.90625 1.1406 1.457 0.58984 0.64453 0.58984 1.6367 0 2.2812l-2.8711 3.1836c-0.52734 0.53516-0.63672 1.3516-0.27734 2.0078 0.78125 1.3867 1.4531 2.8359 2.0078 4.3281 0.26953 0.71484 0.96875 1.1758 1.7305 1.1406l4.0156-0.27734c0.875-0.058594 1.6406 0.58203 1.7305 1.457 0.3125 0.55469 0.3125 1.1406 0.58984 1.7305 0.11328 0.41797 0.058594 0.86328-0.15625 1.2383-0.21484 0.37891-0.57031 0.65625-0.98828 0.76562l-3.7734 1.7305v0.003906c-0.71484 0.26562-1.1758 0.96484-1.1406 1.7305 0.13672 1.5312 0.13672 3.0703 0 4.6016-0.27734 0.86719 0.27734 1.4531 1.1406 1.7305l4.0508 1.418c1.1094 0.625 1.6953 1.1797 1.418 2.3203zm46.656-67.145v0.86719h-0.003906c0.058594 0.875-0.58203 1.6406-1.4531 1.7305l-4.0156 0.86719c-0.81641 0.18359-1.4141 0.89062-1.4531 1.7305-0.27734 1.4531-0.55469 3.1836-0.86719 4.6367-0.25 0.72656-0.015625 1.5312 0.58984 2.0078l3.4609 2.2852c0.86719 0.58984 1.1406 1.1758 0.86719 2.043-0.27734 0.86719-0.58984 0.86719-0.86719 1.418-0.27734 0.55469-1.1406 1.1758-2.0078 0.86719l-4.0508-1.1406v-0.003906c-0.79297-0.28906-1.6719 0.089843-2.0078 0.86328-0.86719 1.3125-1.8281 2.5625-2.8711 3.7383-0.51562 0.53906-0.64062 1.3398-0.3125 2.0078l2.0078 3.4609c0.42969 0.80469 0.19141 1.7969-0.55469 2.3203-0.58984 0.21875-1.0977 0.61719-1.4531 1.1406-0.86719 0.58984-1.7305 0.58984-2.2852-0.27734l-3.1836-2.8711c-0.53516-0.51562-1.3398-0.64062-2.0078-0.3125-1.3828 0.79297-2.832 1.4766-4.3242 2.043-0.63672 0.35938-1.0625 1.0039-1.1406 1.7305l0.27734 4.0156h-0.003906c0.14453 0.38281 0.097656 0.8125-0.12891 1.1562-0.22656 0.34375-0.60156 0.55469-1.0117 0.57422-0.58984 0.27734-1.1758 0.27734-1.7305 0.58984-0.88672 0.21875-1.7891-0.30078-2.043-1.1797l-1.7305-3.7383c-0.26562-0.70313-0.94531-1.1602-1.6953-1.1406-0.75 0.22656-1.5352 0.32031-2.3203 0.27734-0.75 0.26562-1.5664 0.26562-2.3164 0-0.74609 0.03125-1.4102 0.46875-1.7305 1.1406l-1.4219 4.0508c-0.86719 1.7305-1.4531 2.0078-2.5977 1.7305h0.003907c-0.58984 0.042969-1.1836-0.050781-1.7305-0.27734-0.76562-0.26563-1.3242-0.92969-1.4531-1.7305v-4.3281c-0.007813-0.75-0.45312-1.4297-1.1445-1.7305-1.5156-0.49219-2.9688-1.1641-4.3242-2.0039-0.86719-0.58984-1.418-0.58984-2.0078 0.27734l-2.8711 2.8711c-0.58594 0.67969-1.5938 0.79688-2.3203 0.27734-0.54297-0.30078-1.0352-0.6875-1.4531-1.1445-0.41016-0.19531-0.71094-0.56641-0.81641-1.0117-0.10938-0.44141-0.011719-0.90625 0.26172-1.2695l2.0078-3.7734c0.27734-0.86719 0.27734-1.7305-0.27734-2.0078-1.1484-1.1719-2.2109-2.418-3.1836-3.7383-0.53906-0.52734-1.2539-0.83594-2.0078-0.86719l-4.0508 1.1406v0.003906c-0.78906 0.23828-1.6367-0.12891-2.0078-0.86719l-0.86719-1.7305h0.003906c-0.26562-0.72266-0.027344-1.5391 0.58594-2.0078l3.4609-2.5977 0.003906 0.003906c0.60156-0.47656 0.82422-1.2891 0.55078-2.0078-0.27734-1.4531-0.86719-2.8711-1.1406-4.6016-0.27734-0.86719-0.86719-1.4531-1.4531-1.4531l-4.3281-0.58984c-0.80859-0.1875-1.3945-0.89844-1.418-1.7305v-1.7305c-0.042969-0.85156 0.57422-1.5898 1.418-1.6953l4.0508-0.86719c0.81641-0.18359 1.4102-0.89062 1.4531-1.7305 0.27734-1.4531 0.55469-3.1836 0.86719-4.6367 0.26172-0.72656 0.023438-1.5391-0.58984-2.0078l-3.4609-2.2852c-0.86719-0.58984-1.1406-1.1758-0.86719-2.043 0.27734-0.86719 0.58984-0.86719 0.86719-1.418 0.27734-0.55469 1.1406-1.1758 2.0078-0.86719l4.3281 0.86719h-0.003907c0.79297 0.28906 1.6758-0.089844 2.0078-0.86328 0.87109-1.332 1.8438-2.5938 2.9062-3.7734 0.49609-0.55078 0.60938-1.3477 0.27734-2.0078l-2.0078-3.4609c-0.4375-0.78906-0.19531-1.7852 0.55469-2.2852 0.60156-0.22266 1.1133-0.63672 1.4531-1.1758 0.33594-0.30469 0.78516-0.44922 1.2344-0.38672 0.44922 0.058594 0.84375 0.31641 1.0859 0.69922l3.1484 2.8711c0.53516 0.52734 1.3516 0.63672 2.0078 0.27734 1.3906-0.77734 2.8359-1.4492 4.3281-2.0078 0.64453-0.35547 1.082-1 1.1758-1.7305l-0.86719-5.1914c-0.16016-0.38281-0.12109-0.82422 0.10938-1.1719 0.23047-0.34766 0.61719-0.55859 1.0352-0.55859 0.58984-0.27734 1.1406-0.27734 1.7305-0.55469 0.41797-0.125 0.86719-0.074219 1.25 0.14062 0.37891 0.21484 0.65234 0.57812 0.75781 1l1.4531 4.3281c0.26953 0.71484 0.96875 1.1758 1.7305 1.1406 0.73828-0.22656 1.5117-0.32031 2.2852-0.27734 0.76562-0.15625 1.5547-0.15625 2.3164 0 0.72266-0.09375 1.3594-0.51562 1.7305-1.1406l1.4531-4.0508h0.003907c0.42187-0.70312 1.1836-1.1367 2.0039-1.1406 0.54688 0.22656 1.1406 0.32422 1.7305 0.27734 0.77344 0.25 1.3242 0.92578 1.4219 1.7305v4.3281-0.003906c0.027343 0.75781 0.48437 1.4297 1.1758 1.7344 1.5195 0.49219 2.9688 1.1641 4.3281 2.0039 0.83203 0.58984 1.418 0.58984 2.0078-0.27734l3.1484-2.9062c0.58984-0.66406 1.5859-0.78125 2.3164-0.27734 0.53516 0.3125 1.0273 0.69531 1.457 1.1445 0.41016 0.20703 0.70703 0.58203 0.81641 1.0312 0.10547 0.44531 0.007812 0.91797-0.26563 1.2852l-1.418 3.7383c-0.3125 0.86719-0.3125 1.7305 0.27734 2.043 1.125 1.1797 2.1758 2.4297 3.1484 3.7383 0.56641 0.50391 1.2852 0.80859 2.043 0.86719l4.0156-1.1758v-0.003906c0.79688-0.20312 1.6328 0.15234 2.043 0.86719 0.27734 0.58984 0.55469 1.1758 0.86719 1.7305h-0.003906c0.25781 0.73438 0.023437 1.5547-0.58984 2.043l-3.1836 2.5977v-0.003906c-0.60938 0.47266-0.83594 1.2891-0.55469 2.0078 0.27734 1.418 0.86719 2.8711 1.1406 4.6016 0.27734 0.86719 0.86719 1.4531 1.4531 1.4531l4.293 0.55469h0.003907c0.81641 0.1875 1.4102 0.89453 1.4531 1.7305z"/>
 </g>
</svg>
