<svg width="800" height="800" viewBox="0 0 800 800" fill="none" xmlns="http://www.w3.org/2000/svg">
<rect width="800" height="800" rx="100" fill="white"/>
<path d="M527.424 354.319C531.981 353.241 535.896 350.323 538.231 346.262C540.567 342.196 541.117 337.348 539.752 332.867C538.636 328.305 535.735 324.379 531.701 321.974C527.672 319.563 522.841 318.873 518.294 320.059C513.775 321.219 509.914 324.158 507.595 328.208C505.271 332.257 504.689 337.073 505.967 341.56C508.474 350.933 517.992 356.59 527.424 354.319Z" fill="black"/>
<path d="M560.802 375.4C551.095 375.4 541.787 379.256 534.922 386.121C528.057 392.986 524.201 402.294 524.201 412.001C524.201 421.708 528.057 431.021 534.922 437.881C541.787 444.746 551.095 448.601 560.802 448.601C570.508 448.601 579.816 444.746 586.682 437.881C593.547 431.021 597.402 421.708 597.402 412.001C597.429 402.289 593.579 392.965 586.708 386.094C579.843 379.223 570.515 375.379 560.802 375.4ZM560.802 439.86C553.414 439.86 546.328 436.926 541.101 431.7C535.881 426.475 532.942 419.389 532.942 412C532.942 404.611 535.881 397.526 541.101 392.305C546.327 387.079 553.413 384.146 560.802 384.146C568.19 384.146 575.275 387.079 580.502 392.305C585.722 397.525 588.662 404.611 588.662 412C588.71 419.404 585.793 426.523 580.556 431.754C575.32 436.99 568.207 439.908 560.802 439.86Z" fill="black"/>
<path d="M650.129 305.724C663.881 320.537 663.023 343.695 648.215 357.452C633.402 371.209 610.244 370.351 596.487 355.537C582.73 340.723 583.587 317.567 598.401 303.81C613.215 290.058 636.372 290.916 650.129 305.724Z" fill="black"/>
<mask id="mask0_7_12" style="mask-type:luminance" maskUnits="userSpaceOnUse" x="73" y="186" width="654" height="428">
<path d="M73.0999 186.015H726.9V613.985H73.0999V186.015Z" fill="white"/>
</mask>
<g mask="url(#mask0_7_12)">
<path d="M725.908 377.788C727.391 366.167 727.262 354.4 725.525 342.81C718.741 305.395 684.146 278.351 642.384 266.357C608.173 256.801 547.731 246.862 504.771 270.321V270.326C499.707 273.103 495.075 276.598 491.008 280.696V186.279H154.333V350.744H73.1008V525.535H154.333V607.91H247.078V525.535H409.542V361.209H466.878C468.797 382.936 472.621 404.458 478.299 425.523C481.977 437.84 486.367 449.931 491.442 461.74C495.028 470.104 505.344 510.668 502.572 534.128C498.226 569.914 469.935 591.463 456.033 602.55V602.556C454.102 604.093 453.244 606.617 453.843 609.011C454.442 611.405 456.378 613.234 458.805 613.686H604.784C607.254 614.193 609.789 613.158 611.196 611.06C612.598 608.962 612.598 606.223 611.185 604.131C603.635 593.108 602.282 578.973 607.599 566.715C610.371 560.362 613.143 557.59 620.693 560.788V560.794C630.799 565.491 641.325 569.223 652.132 571.924C659.682 573.499 661.257 573.882 669.621 568.721C673.261 566.839 676.238 563.889 678.158 560.271C680.078 556.652 680.849 552.532 680.374 548.466C679.56 539.293 679.177 537.287 681.189 532.935C682.386 530.163 686.35 527.342 687.542 522.996C687.924 522.181 679.56 520.175 679.56 519.41C679.56 518.644 688.302 518.595 688.733 517.835C689.931 513.823 689.116 509.471 690.308 505.459C692.314 497.526 696.283 488.784 703.45 488.402C706.19 487.96 708.859 487.156 711.383 486.013C716.134 484.163 718.599 478.905 716.975 474.068C713.389 457.776 708.611 448.598 705.413 432.306C704.335 428.78 704.486 424.988 705.839 421.553C716.355 407.651 722.946 414.818 725.911 377.786L725.908 377.788ZM164.851 196.688H235.567V268.363H164.851V196.688ZM164.851 278.921H235.567V350.597H164.851V278.921ZM235.567 443.428V515.103H165.807V443.428H235.567ZM154.336 515.103H83.5284V443.428H154.341L154.336 515.103ZM155.242 432.869H83.566V361.194H155.242V432.869ZM236.473 597.334H164.798L164.803 525.523H236.479L236.473 597.334ZM317.036 515.25H247.086V443.575H317.036V515.25ZM317.036 433.017H246.126V361.342H317.036V433.017ZM317.036 350.733H247.086V279.058L317.036 279.064V350.733ZM328.409 196.678H398.316V268.353H328.409V196.678ZM328.409 278.912H398.316V350.587H328.409V278.912ZM399.27 433.009H328.409V361.333H399.27V433.009ZM409.689 196.673H480.55V268.348H409.689V196.673ZM409.689 350.728V279.053L480.55 279.058V294.25C471.932 309.732 467.149 327.049 466.594 344.758C466.497 346.748 466.497 348.738 466.594 350.728L409.689 350.728ZM505.255 364.678L507.644 358.326H507.639C508.011 357.441 507.66 356.417 506.83 355.937C506.447 355.505 506.064 355.122 506.064 354.739V354.745C505.433 354.125 504.554 353.823 503.675 353.93L497.7 356.319C496.503 356.702 495.311 356.702 494.928 355.122H494.933C494.184 353.844 493.515 352.518 492.922 351.159C492.539 350.344 493.305 349.153 493.736 348.338L500.089 343.177C499.614 341.775 499.339 340.314 499.28 338.831L491.347 336.442H491.11V328.32C491.563 328.056 492.043 327.851 492.544 327.7H498.897C499.663 327.7 500.855 326.886 500.855 326.503C500.855 326.12 501.286 325.306 501.286 324.88C501.777 324.087 501.588 323.057 500.855 322.491L496.891 317.33C496.017 316.505 495.861 315.183 496.508 314.175C497.474 313.026 498.53 311.958 499.663 310.972C500.488 310.076 501.847 309.915 502.861 310.594L508.836 314.558C509.586 314.946 510.476 314.946 511.225 314.558C512.04 314.175 512.422 313.743 512.8 313.743C513.582 313.204 514.035 312.304 513.997 311.354L513.614 305.002C513.183 303.804 513.997 302.996 515.189 302.613C515.868 302.521 516.537 302.392 517.195 302.23C517.804 301.917 518.478 301.771 519.158 301.798C519.692 301.599 520.296 301.669 520.77 301.992C521.245 302.316 521.536 302.85 521.547 303.427L523.553 309.78C523.898 310.621 524.659 311.22 525.559 311.354C526.325 310.971 526.756 311.354 527.134 311.354C528.083 311.376 528.973 310.928 529.523 310.163L533.109 305.002C533.605 303.966 534.786 303.454 535.881 303.804C537.24 304.398 538.567 305.066 539.845 305.816C540.659 306.582 541.468 307.774 541.042 308.588L539.084 314.941C538.707 315.814 539.03 316.833 539.845 317.33C540.276 317.712 540.659 318.144 540.659 318.527V318.521C541.285 319.147 542.169 319.449 543.048 319.336L549.401 316.947C550.598 316.515 551.79 316.515 552.173 318.144C552.917 319.422 553.591 320.748 554.179 322.108C554.562 322.922 553.796 324.114 553.364 324.879L546.154 330.04C546.694 331.302 546.845 332.704 546.586 334.052L554.518 336.441H554.513C555.721 336.566 556.605 337.622 556.524 338.831C556.46 340.313 556.185 341.775 555.71 343.177C555.327 344.374 554.513 344.752 553.321 345.183H546.92C546.106 345.183 544.914 345.949 544.914 346.38C544.914 346.812 544.531 347.577 544.531 347.955C544.531 348.338 544.148 349.961 544.914 350.344L548.926 355.505C549.805 356.346 549.961 357.689 549.309 358.708C548.349 359.868 547.276 360.925 546.106 361.863C545.34 363.486 544.148 363.486 543.334 362.677L538.173 359.091C537.423 358.697 536.533 358.697 535.784 359.091C534.969 359.474 534.587 359.905 534.209 359.905V359.9C533.427 360.439 532.974 361.345 533.012 362.294L533.395 368.647C533.778 369.844 533.012 370.653 531.82 371.036C531.141 371.122 530.472 371.252 529.814 371.419C529.188 371.732 528.498 371.877 527.803 371.85C527.274 372.028 526.686 371.948 526.223 371.629C525.759 371.306 525.478 370.788 525.462 370.222L523.456 363.869C523.111 363.028 522.351 362.429 521.45 362.294C520.684 362.677 520.253 362.294 519.875 362.294C518.926 362.257 518.026 362.704 517.486 363.486L513.9 368.647C513.393 369.666 512.223 370.173 511.128 369.839C509.769 369.251 508.443 368.582 507.164 367.833C505.541 367.073 504.775 365.875 505.158 364.684L505.255 364.678ZM613.866 422.732C613.866 423.115 613.435 423.546 613.435 423.929C613.435 424.312 613.052 424.743 613.052 425.126H613.046C612.809 426.264 611.822 427.094 610.657 427.132L605.065 426.701H605.07C604.029 426.744 603.102 427.375 602.681 428.329C601.932 430.379 601.01 432.363 599.909 434.251C599.575 434.677 599.435 435.221 599.516 435.755C599.597 436.289 599.893 436.764 600.341 437.071L604.305 441.418C605.011 442.334 605.157 443.564 604.687 444.621C604.294 445.37 603.76 446.039 603.107 446.578C602.39 447.603 601.031 447.948 599.909 447.393L594.749 444.621C593.837 444.136 592.721 444.292 591.977 445.004C590.353 446.578 588.773 447.776 586.767 449.399C585.619 450.165 585.619 450.974 585.619 452.171L587.193 457.763H587.199C587.49 458.847 586.994 459.996 586.001 460.53L583.612 461.727C582.415 462.11 581.223 462.11 580.841 460.912L577.637 456.135H577.643C576.985 455.304 575.863 454.997 574.871 455.374C572.8 456.07 570.675 456.598 568.518 456.949C567.321 457.332 566.512 458.146 566.512 458.955L565.698 464.499C565.455 465.636 564.468 466.462 563.309 466.505H560.919C559.76 466.445 558.784 465.626 558.53 464.499L557.333 458.955C556.95 457.758 556.185 456.949 555.376 456.949C554.561 456.949 553.37 456.566 552.172 456.134C550.975 455.703 550.215 455.752 549.017 455.369C547.82 454.986 547.011 455.752 546.197 456.566L543.042 461.344H543.048C542.368 462.142 541.279 462.466 540.276 462.158L537.887 460.961C537.25 460.767 536.716 460.319 536.414 459.726C536.107 459.133 536.053 458.443 536.263 457.806L537.887 452.214C538.27 451.017 537.455 450.208 536.689 449.442L536.695 449.447C534.802 448.342 533.049 447.01 531.485 445.478C531.178 445.052 530.709 444.761 530.191 444.68C529.668 444.599 529.134 444.734 528.714 445.052L523.936 447.824C522.943 448.536 521.574 448.369 520.781 447.441C520.139 446.875 519.594 446.217 519.158 445.478C518.397 444.551 518.397 443.213 519.158 442.28L523.17 437.885C523.855 437.125 524.006 436.025 523.553 435.113C522.452 433.21 521.525 431.209 520.781 429.138C520.387 428.173 519.438 427.542 518.392 427.564L512.708 427.898C511.505 428.006 510.443 427.138 510.319 425.94C509.936 425.126 509.936 424.317 509.553 423.551C509.213 422.338 509.92 421.076 511.127 420.731L516.288 418.342C517.259 417.975 517.89 417.037 517.868 416.001C517.674 413.871 517.674 411.725 517.868 409.595C518.3 408.398 517.486 407.637 516.294 407.206L510.75 405.248H510.745C509.661 404.774 509.003 403.657 509.121 402.476C509.121 402.045 509.553 401.662 509.553 401.279C509.553 400.896 509.936 400.465 509.936 400.082V400.087C510.173 398.949 511.16 398.119 512.325 398.081L517.868 398.464C518.904 398.453 519.842 397.839 520.258 396.884C521.04 394.824 521.978 392.829 523.073 390.914C523.407 390.499 523.547 389.96 523.466 389.437C523.385 388.908 523.083 388.439 522.647 388.142L518.683 383.747H518.677C517.928 382.868 517.777 381.623 518.295 380.593C518.683 379.827 519.217 379.142 519.875 378.586C520.592 377.562 521.951 377.217 523.073 377.772L528.616 380.161C529.814 380.593 530.622 380.593 531.388 379.778C533.011 378.204 534.591 377.006 536.598 375.383C537.795 374.617 537.795 373.809 537.795 372.611L536.172 367.068L536.166 367.073C535.886 365.967 536.376 364.819 537.363 364.253L539.752 363.055C540.95 362.672 542.141 362.672 542.524 363.87L545.728 368.648H545.722C546.369 369.494 547.491 369.823 548.494 369.462C550.581 368.739 552.722 368.195 554.895 367.833C556.092 367.45 556.853 366.636 556.853 365.876L557.667 360.283C557.915 359.156 558.902 358.342 560.056 358.326H562.445C563.594 358.363 564.576 359.167 564.834 360.283L565.217 366.258C565.6 367.456 566.414 368.265 567.223 368.265C568.038 368.265 569.181 368.647 570.378 369.03C571.387 369.499 572.471 369.775 573.581 369.839C574.638 369.877 575.652 369.44 576.353 368.647L579.557 363.869H579.551C580.225 363.061 581.32 362.737 582.323 363.055L584.712 364.252C585.742 364.781 586.244 365.967 585.909 367.073L584.378 372.611C583.946 373.808 584.761 374.617 585.575 375.383C587.452 376.499 589.188 377.853 590.736 379.401C591.049 379.821 591.518 380.102 592.041 380.172C592.559 380.242 593.087 380.102 593.508 379.778L598.669 377.006L598.663 377.012C599.672 376.289 601.058 376.456 601.867 377.389C602.508 377.961 603.042 378.64 603.441 379.401C604.256 380.29 604.256 381.66 603.441 382.55L599.478 386.945C598.75 387.684 598.599 388.811 599.095 389.717C600.173 391.631 601.101 393.632 601.867 395.692C602.239 396.679 603.204 397.315 604.256 397.267L609.799 396.884C611.007 396.803 612.064 397.687 612.188 398.895C612.62 399.661 612.62 400.47 613.003 401.284C613.159 401.861 613.084 402.476 612.787 402.994C612.49 403.517 612 403.9 611.423 404.051L606.213 406.44V406.445C605.226 406.812 604.59 407.777 604.639 408.834C604.827 410.948 604.827 413.073 604.639 415.187C604.256 416.384 605.021 417.193 606.213 417.576L611.806 419.534C613.337 420.397 614.146 421.162 613.763 422.737L613.866 422.732ZM678.277 330.035V331.232H678.272C678.353 332.44 677.468 333.497 676.266 333.621L670.722 334.818C669.595 335.072 668.77 336.048 668.716 337.207C668.333 339.213 667.95 341.602 667.519 343.608C667.173 344.612 667.497 345.722 668.333 346.38L673.111 349.535C674.308 350.349 674.686 351.158 674.308 352.356C673.925 353.553 673.494 353.553 673.111 354.313C672.728 355.079 671.536 355.937 670.339 355.51L664.747 353.936V353.93C663.652 353.531 662.438 354.054 661.975 355.122C660.778 356.934 659.451 358.66 658.011 360.283C657.299 361.027 657.127 362.133 657.58 363.055L660.352 367.833C660.945 368.944 660.616 370.314 659.586 371.036C658.771 371.338 658.07 371.888 657.58 372.611C656.382 373.425 655.191 373.425 654.425 372.228L650.03 368.264C649.291 367.552 648.18 367.38 647.258 367.833C645.349 368.928 643.348 369.871 641.288 370.653C640.409 371.149 639.821 372.039 639.713 373.042L640.096 378.586H640.091C640.29 379.115 640.226 379.708 639.913 380.182C639.6 380.657 639.082 380.948 638.516 380.975C637.702 381.358 636.893 381.358 636.127 381.789C634.903 382.091 633.657 381.374 633.307 380.161L630.918 375C630.551 374.029 629.613 373.398 628.577 373.425C627.542 373.738 626.458 373.867 625.374 373.808C624.338 374.175 623.211 374.175 622.176 373.808C621.146 373.851 620.229 374.455 619.787 375.383L617.824 380.975C616.627 383.364 615.818 383.747 614.238 383.364H614.243C613.429 383.423 612.609 383.294 611.854 382.981C610.797 382.614 610.026 381.698 609.848 380.592V374.617C609.837 373.582 609.222 372.643 608.268 372.228C606.175 371.548 604.169 370.621 602.298 369.461C601.101 368.647 600.34 368.647 599.526 369.844L595.562 373.808C594.754 374.746 593.362 374.908 592.359 374.191C591.61 373.776 590.93 373.242 590.353 372.611C589.787 372.341 589.372 371.829 589.226 371.214C589.075 370.605 589.21 369.963 589.587 369.462L592.359 364.252C592.742 363.055 592.742 361.863 591.976 361.48C590.391 359.862 588.924 358.142 587.581 356.319C586.837 355.591 585.85 355.165 584.809 355.122L579.217 356.697V356.702C578.128 357.031 576.957 356.524 576.445 355.505L575.248 353.116H575.253C574.887 352.118 575.215 350.991 576.062 350.344L580.84 346.758L580.846 346.763C581.676 346.105 581.983 344.984 581.606 343.991C581.223 341.985 580.409 340.028 580.031 337.639C579.648 336.442 578.834 335.633 578.025 335.633L572.05 334.818C570.934 334.56 570.125 333.578 570.092 332.429V330.04C570.033 328.865 570.885 327.845 572.05 327.7L577.642 326.503C578.769 326.249 579.589 325.273 579.648 324.114C580.031 322.108 580.414 319.719 580.846 317.712C581.207 316.709 580.878 315.588 580.031 314.941L575.253 311.786C574.056 310.971 573.679 310.163 574.056 308.965C574.439 307.768 574.871 307.768 575.253 307.008C575.636 306.242 576.828 305.384 578.025 305.81L584 307.008H583.995C585.09 307.407 586.309 306.884 586.767 305.816C587.97 303.977 589.312 302.235 590.779 300.607C591.464 299.846 591.62 298.746 591.162 297.835L588.39 293.057C587.786 291.967 588.12 290.592 589.156 289.902C589.986 289.594 590.693 289.023 591.162 288.279C591.626 287.858 592.246 287.658 592.866 287.745C593.486 287.826 594.031 288.182 594.365 288.71L598.712 292.674C599.451 293.402 600.578 293.553 601.484 293.057C603.403 291.983 605.399 291.056 607.459 290.285C608.349 289.794 608.953 288.904 609.082 287.896L607.885 280.729C607.664 280.2 607.718 279.591 608.036 279.111C608.354 278.631 608.888 278.34 609.465 278.34C610.279 277.957 611.04 277.957 611.854 277.574C612.431 277.401 613.051 277.471 613.58 277.768C614.103 278.065 614.48 278.566 614.626 279.149L616.632 285.124C617.004 286.111 617.969 286.747 619.021 286.698C620.04 286.386 621.108 286.256 622.176 286.316C623.233 286.1 624.322 286.1 625.374 286.316C626.371 286.186 627.251 285.604 627.763 284.741L629.769 279.149H629.774C630.357 278.178 631.408 277.579 632.541 277.574C633.296 277.887 634.116 278.022 634.93 277.957C635.998 278.302 636.758 279.235 636.893 280.346V286.321V286.316C636.931 287.362 637.562 288.289 638.516 288.71C640.614 289.39 642.615 290.317 644.491 291.476C645.64 292.291 646.449 292.291 647.263 291.094L651.61 287.081C652.424 286.165 653.799 286.003 654.808 286.699C655.546 287.13 656.226 287.658 656.819 288.279C657.385 288.564 657.795 289.082 657.946 289.702C658.092 290.317 657.957 290.97 657.58 291.477L655.622 296.637C655.19 297.835 655.19 299.026 656.005 299.458C657.558 301.087 659.009 302.812 660.351 304.619C661.133 305.314 662.126 305.735 663.172 305.816L668.715 304.193V304.187C669.816 303.907 670.97 304.398 671.536 305.385C671.919 306.199 672.302 307.008 672.733 307.774H672.728C673.084 308.787 672.76 309.92 671.913 310.594L667.518 314.18V314.175C666.677 314.827 666.364 315.955 666.753 316.947C667.135 318.904 667.95 320.91 668.327 323.299C668.71 324.497 669.524 325.306 670.333 325.306L676.26 326.071H676.265C677.393 326.33 678.212 327.306 678.272 328.46L678.277 330.035Z" fill="black"/>
</g>
</svg>
