<?xml version="1.0" encoding="UTF-8"?>
<svg width="752pt" height="752pt" version="1.1" viewBox="0 0 752 752" xmlns="http://www.w3.org/2000/svg">
 <g>
  <path d="m590.59 302h-59.012c-11.867-5.4609-24.355-9.4609-37.184-11.906v-113.89c0-5.8906-2.3398-11.535-6.5039-15.699-4.1641-4.1641-9.8086-6.5-15.695-6.5h-14.801c-5.8867 0-11.535 2.3359-15.699 6.5-4.1602 4.1641-6.5 9.8086-6.5 15.699v113.83c-21.137 4.0391-41.258 12.238-59.199 24.121-46.195-31.105-105.32-35.719-155.79-12.156h-58.805c-4.0859 0-7.3984 3.3125-7.3984 7.3984v281.19c0 1.9609 0.77734 3.8438 2.1641 5.2305 1.3906 1.3867 3.2734 2.168 5.2344 2.168h429.18c1.9609 0 3.8438-0.78125 5.2305-2.168s2.168-3.2695 2.168-5.2305v-281.19c0-1.9609-0.78125-3.8438-2.168-5.2305s-3.2695-2.168-5.2305-2.168zm-396.31 14.844c-2.0469 1.375-3.2773 3.6797-3.2773 6.1484v260.2h-22.199v-266.39h25.547zm31.797 266.34c38.707-18.238 83.539-18.238 122.25 0zm142.52-6.0938c-24.602-14.711-52.73-22.48-81.398-22.48-28.664 0-56.793 7.7695-81.395 22.48v-250.15c24-16.336 52.363-25.074 81.395-25.074 29.035 0 57.398 8.7383 81.398 25.074zm81.398-400.89c0-4.0898 3.3125-7.4023 7.3984-7.4023h14.801c1.9609 0 3.8438 0.78125 5.2305 2.168 1.3867 1.3867 2.168 3.2695 2.168 5.2344v7.3984h-29.598zm0 22.199h29.598v147.99h-29.598zm27.055 162.79-12.258 40.844-12.254-40.844zm-73.363 221.99c38.695-18.238 83.516-18.238 122.21 0zm142.5-6.0898c-24.602-14.719-52.73-22.492-81.398-22.492-28.664 0-56.797 7.7734-81.395 22.492v-250.11c15.707-10.535 33.289-17.965 51.797-21.879v48.688c0.050781 0.44141 0.13672 0.87891 0.25781 1.3047 0.003907 0.27344 0.019531 0.54688 0.054688 0.82031l22.199 73.996h-0.003907c0.94141 3.1328 3.8203 5.2773 7.0898 5.2773s6.1523-2.1445 7.0898-5.2773l22.199-73.996c0.03125-0.27344 0.050781-0.54688 0.050781-0.82031 0.125-0.42578 0.21094-0.86328 0.26172-1.3047v-48.652c11.223 2.3516 22.129 6.0156 32.496 10.914 6.6836 3.1797 13.133 6.832 19.301 10.922zm36.996 6.0898h-22.199v-260.17c0-2.4766-1.2383-4.7852-3.2969-6.1562l-0.089843-0.058593h25.586z"/>
  <path d="m257.61 331.6c-4.0859 0-7.3984 3.3164-7.3984 7.4023v22.199h-22.199c-4.0859 0-7.3984 3.3125-7.3984 7.3984v29.598c0 1.9648 0.77734 3.8477 2.1641 5.2344 1.3906 1.3867 3.2695 2.168 5.2344 2.168h22.199v44.398h-22.199c-4.0859 0-7.3984 3.3125-7.3984 7.3984v29.598c0 1.9648 0.77734 3.8438 2.1641 5.2344 1.3906 1.3867 3.2695 2.168 5.2344 2.168h22.199v22.199c0 1.9609 0.77734 3.8438 2.168 5.2305 1.3867 1.3867 3.2695 2.168 5.2305 2.168h29.598c1.9648 0 3.8477-0.78125 5.2344-2.168s2.168-3.2695 2.168-5.2305v-22.199h51.797c1.9609 0 3.8438-0.78125 5.2344-2.168 1.3867-1.3906 2.1641-3.2695 2.1641-5.2344v-29.598c0-1.9609-0.77734-3.8438-2.1641-5.2344-1.3906-1.3867-3.2734-2.1641-5.2344-2.1641h-51.797v-44.398h51.797c1.9609 0 3.8438-0.78125 5.2344-2.168 1.3867-1.3867 2.1641-3.2695 2.1641-5.2344v-29.598c0-1.9609-0.77734-3.8438-2.1641-5.2305-1.3906-1.3906-3.2734-2.168-5.2344-2.168h-51.797v-22.199c0-1.9648-0.78125-3.8438-2.168-5.2344-1.3867-1.3867-3.2695-2.168-5.2344-2.168zm-7.3984 148h-14.801v-14.801h14.801zm0-88.797h-14.801v-14.801h14.801zm29.598 118.39h-14.797v-14.797h14.801zm0-29.598h-14.797v-14.801h14.801zm0-29.598h-14.797v-14.801h14.801zm0-29.598-14.797-0.003906v-14.797h14.801zm0-29.598-14.797-0.003907v-14.801h14.801zm0-29.598-14.797-0.003906v-14.801h14.801zm44.398 103.6h14.801v14.801l-14.801-0.007813zm0-88.797h14.801v14.801l-14.801-0.007813zm-29.598 0h14.801v14.801l-14.801-0.007813zm0 88.797h14.801v14.801l-14.801-0.007813z"/>
  <path d="m494.4 494.4h-51.801v-51.801c0-1.9609-0.77734-3.8438-2.168-5.2305-1.3867-1.3867-3.2695-2.168-5.2305-2.168h-29.598c-4.0898 0-7.4023 3.3125-7.4023 7.3984v88.797c0 1.9648 0.78125 3.8438 2.168 5.2344 1.3867 1.3867 3.2695 2.1641 5.2344 2.1641h118.39c1.9609 0 3.8438-0.77734 5.2305-2.1641 1.3906-1.3906 2.168-3.2695 2.168-5.2344v-29.598c0-1.9648-0.77734-3.8438-2.168-5.2344-1.3867-1.3867-3.2695-2.1641-5.2305-2.1641zm-66.598 29.598h-14.801v-14.801h14.801zm0-29.598h-14.801v-14.801h14.801zm0-29.598-14.801-0.003906v-14.797h14.801zm29.598 59.199-14.801-0.003906v-14.801h14.801zm29.598 0-14.797-0.003906v-14.801h14.801zm29.598 0-14.797-0.003906v-14.801h14.801z"/>
 </g>
</svg>
