<?xml version="1.0" encoding="UTF-8"?>
<svg width="752pt" height="752pt" version="1.1" viewBox="0 0 752 752" xmlns="http://www.w3.org/2000/svg">
<!-- <rect width="25" height="25" fill="white"/> -->
 <path d="m490.61 151.05h-339.56v449.9h119.34l100.88 0.003906h229.68l0.003906-110.34v-339.56zm-9 330.56h-100.87v-100.87h100.87zm-211.21-211.21h100.87v100.87h-100.87zm110.34-110.35h100.87v100.87l-100.87 0.003906zm-110.34 0h100.87v100.87l-100.87 0.003906zm-110.35 110.35h100.87l0.003906 100.87h-100.88zm0 110.34h100.87v100.87h-100.87zm101.35 211.21h-101.35v-101.34h100.87l0.003906 101.34zm109.87 0h-100.87v-101.34h100.87zm110.34 0h-100.87v-101.34h100.87zm110.34-110.34h-101.34v-100.87h100.87v100.87zm0-110.34h-101.34v-100.87h100.87v100.87zm-101.34-109.87v-101.35h100.87v100.87l-100.87 0.003906z"/>
</svg>
