<svg width="700" height="700" viewBox="0 0 700 700" fill="none" xmlns="http://www.w3.org/2000/svg">
<path d="M700 0H0V700H700V0Z" fill="white"/>
<path d="M503.147 50.4H50.4V650.267H209.52L344.027 650.272H650.267L650.272 503.152V50.4052L503.147 50.4ZM491.147 491.147H356.653V356.653H491.147V491.147ZM209.533 209.533H344.027V344.027H209.533V209.533ZM356.653 62.4H491.147V196.893L356.653 196.899V62.4ZM209.533 62.4H344.027V196.893L209.533 196.899V62.4ZM62.4 209.533H196.893L196.899 344.027H62.3919L62.4 209.533ZM62.4 356.653H196.893V491.147H62.4V356.653ZM197.533 638.267H62.4V503.147H196.893L196.899 638.267H197.533ZM344.027 638.267H209.533V503.147H344.027V638.267ZM491.147 638.267H356.653V503.147H491.147V638.267ZM638.267 491.147H503.147V356.653H637.64V491.147H638.267ZM638.267 344.027H503.147V209.533H637.64V344.027H638.267ZM503.147 197.533V62.4H637.64V196.893L503.147 196.899V197.533Z" fill="black"/>
</svg>
