<?xml version="1.0" encoding="UTF-8"?>
<svg width="752pt" height="752pt" version="1.1" viewBox="0 0 752 752" xmlns="http://www.w3.org/2000/svg">
 <g>
  <path d="m324.2 324.2h14.801v14.801h-14.801z"/>
  <path d="m265.01 294.61h14.801v14.801h-14.801z"/>
  <path d="m294.61 413h14.801v14.801h-14.801z"/>
  <path d="m324.2 353.8h14.801v14.801h-14.801z"/>
  <path d="m294.61 353.8h14.801v14.801h-14.801z"/>
  <path d="m353.8 353.8h14.801v14.801h-14.801z"/>
  <path d="m383.4 413h14.801v14.801h-14.801z"/>
  <path d="m353.8 413h14.801v14.801h-14.801z"/>
  <path d="m383.4 353.8h14.801v14.801h-14.801z"/>
  <path d="m220.61 531.39c0-5.8867-2.3398-11.535-6.5039-15.695-4.1641-4.1641-9.8086-6.5039-15.695-6.5039-5.8906 0-11.535 2.3398-15.699 6.5039-4.1641 4.1602-6.5 9.8086-6.5 15.695s2.3359 11.535 6.5 15.699c4.1641 4.1602 9.8086 6.5 15.699 6.5h244.19v-14.801h-214.59c-4.0859 0-7.3984-3.3125-7.3984-7.3984z"/>
  <path d="m324.2 413h14.801v14.801h-14.801z"/>
  <path d="m413 353.8h14.801v14.801h-14.801z"/>
  <path d="m457.55 453.46-29.168 15.621h-0.003907c-2.4688 1.3203-5.4727 1.1328-7.7617-0.48438-2.2852-1.6172-3.4648-4.3906-3.0391-7.1602l5.0078-32.715c0.17188-1.1328 0.60938-2.2148 1.2734-3.1523l48.336-68.355v-129.21h-236.79v295.99h236.79v-89.887l-12.09 17.094h-0.003906c-0.66016 0.94531-1.5352 1.7148-2.5508 2.2578zm-148.15-203.25h148v14.801h-148zm-59.199 0h44.398v14.801h-44.395zm0 155.39 0.003906-118.4c0-4.0859 3.3125-7.3984 7.3984-7.3984h29.598c1.9648 0 3.8477 0.78125 5.2344 2.168 1.3867 1.3867 2.168 3.2695 2.168 5.2305v51.797h14.801l-0.003906-22.195c0-4.0859 3.3164-7.4023 7.4023-7.4023h29.598c1.9609 0 3.8438 0.78125 5.2344 2.168 1.3867 1.3906 2.1641 3.2695 2.1641 5.2344v22.199h81.398c1.9609 0 3.8438 0.77734 5.2305 2.168 1.3906 1.3867 2.168 3.2695 2.168 5.2305v29.598c0 1.9648-0.77734 3.8477-2.168 5.2344-1.3867 1.3867-3.2695 2.168-5.2305 2.168h-140.59v14.801l111-0.003906c1.9609 0 3.8438 0.78125 5.2305 2.168 1.3867 1.3867 2.168 3.2695 2.168 5.2344v29.598c0 1.9609-0.78125 3.8438-2.168 5.2305-1.3867 1.3906-3.2695 2.168-5.2305 2.168h-148c-4.0859 0-7.3984-3.3125-7.3984-7.3984zm155.39 51.797v14.801h-36.996v-14.801zm-51.797 0v14.801h-44.398v-14.801zm-103.59 0h44.398v14.801h-44.398zm207.19 44.398h-207.19v-14.801h207.19z"/>
  <path d="m525.65 307.23-88.699 125.46-2.5078 16.352 14.582-7.8125 88.715-125.45-6.043-4.2695z"/>
  <path d="m542.75 283.07-8.5469 12.082 6.0469 4.2773 6.043 4.2695 8.5469-12.086-6.043-4.2734z"/>
  <path d="m574.43 251.09c-1.6055-1.1328-3.5898-1.582-5.5234-1.25-1.9375 0.33203-3.6602 1.418-4.793 3.0195l-12.824 18.129 6.0469 4.2695 6.0469 4.2773 12.816-18.121h-0.003906c1.1367-1.6016 1.5898-3.5938 1.2578-5.5273-0.33203-1.9375-1.4219-3.6641-3.0234-4.7969z"/>
  <path d="m265.01 324.2h14.801v14.801h-14.801z"/>
  <path d="m220.61 501.95v-281.34c0-7.9336-4.2344-15.262-11.102-19.227-6.8672-3.9648-15.332-3.9648-22.199 0-6.8672 3.9648-11.098 11.293-11.098 19.227v281.38c6.3516-4.9141 14.156-7.5859 22.191-7.5938 8.0312-0.007812 15.84 2.6484 22.207 7.5508z"/>
  <path d="m265.01 413h14.801v14.801h-14.801z"/>
  <path d="m265.01 383.4h14.801v14.801h-14.801z"/>
  <path d="m265.01 353.8h14.801v14.801h-14.801z"/>
 </g>
</svg>
