<?xml version="1.0" encoding="UTF-8"?>
<svg width="752pt" height="752pt" version="1.1" viewBox="0 0 752 752" xmlns="http://www.w3.org/2000/svg">
 <g>
  <path d="m161.41 287.2v244.19c0.011719 9.8086 3.9141 19.215 10.848 26.148 6.9375 6.9375 16.34 10.84 26.152 10.852h251.59c1.9609 0 3.8438-0.78125 5.2305-2.168 1.3867-1.3867 2.168-3.2695 2.168-5.2344v-22.199h22.199c1.9609 0 3.8438-0.77734 5.2305-2.1641 1.3906-1.3906 2.168-3.2695 2.168-5.2344v-81.395h-14.797v73.996h-236.79v-295.99h236.79v88.797h14.801l-0.003906-96.195c0-1.9648-0.77734-3.8477-2.168-5.2344-1.3867-1.3867-3.2695-2.168-5.2305-2.168h-244.93c-2.457-12.098-10.785-22.172-22.203-26.859-11.418-4.6914-24.422-3.3789-34.672 3.5s-16.395 18.418-16.383 30.762v51.289l14.801-0.003907v-51.285c0-7.9336 4.2305-15.262 11.098-19.227 6.8672-3.9648 15.332-3.9648 22.199 0 6.8672 3.9648 11.102 11.293 11.102 19.227v281.34c-6.3672-4.9023-14.176-7.5586-22.207-7.5508-8.0352 0.007813-15.84 2.6797-22.191 7.5938v-214.79zm37 221.99c5.8867 0 11.531 2.3398 15.695 6.5039 4.1641 4.1602 6.5039 9.8086 6.5039 15.695 0 1.9648 0.77734 3.8438 2.1641 5.2344 1.3906 1.3867 3.2695 2.1641 5.2344 2.1641h214.59v14.801h-244.19c-7.9336 0-15.262-4.2305-19.227-11.098-3.9648-6.8711-3.9648-15.332 0-22.199 3.9648-6.8711 11.293-11.102 19.227-11.102z"/>
  <path d="m250.21 250.21h44.398v14.801h-44.398z"/>
  <path d="m250.21 457.4h44.398v14.801h-44.398z"/>
  <path d="m309.4 457.4h44.398v14.801h-44.398z"/>
  <path d="m368.6 457.4h37v14.801h-37z"/>
  <path d="m250.21 487h207.19v14.801h-207.19z"/>
  <path d="m309.4 250.21h147.99v14.801h-147.99z"/>
  <path d="m250.21 316.8v118.39c0 1.9609 0.77734 3.8438 2.168 5.2305 1.3867 1.3906 3.2695 2.168 5.2305 2.168h148c1.9609 0 3.8438-0.77734 5.2305-2.168 1.3867-1.3867 2.168-3.2695 2.168-5.2305v-29.598c0-1.9648-0.78125-3.8477-2.168-5.2344-1.3867-1.3867-3.2695-2.168-5.2305-2.168h-111v-14.797h140.59c1.9609 0 3.8438-0.78125 5.2305-2.168 1.3906-1.3867 2.168-3.2695 2.168-5.2344v-29.598c0-1.9609-0.77734-3.8438-2.168-5.2305-1.3867-1.3906-3.2695-2.168-5.2305-2.168h-81.398v-22.199c0-1.9648-0.77734-3.8438-2.1641-5.2344-1.3906-1.3867-3.2734-2.168-5.2344-2.168h-29.598c-4.0859 0-7.4023 3.3164-7.4023 7.4023v22.199h-14.797v-51.801c0-1.9609-0.78125-3.8438-2.168-5.2305-1.3867-1.3867-3.2695-2.168-5.2344-2.168h-29.598c-4.0859 0-7.3984 3.3125-7.3984 7.3984zm29.598 81.398-14.797-0.003906v-14.797h14.801zm-14.801-29.598 0.003906-14.805h14.801v14.801zm14.801-29.598-14.797-0.003906v-14.801h14.801zm-14.797 73.992h14.801v14.801h-14.801zm133.2 14.801h-14.801v-14.801h14.801zm-29.598 0h-14.805v-14.801h14.801zm-29.598 0h-14.805v-14.801h14.801zm-29.598 0h-14.805v-14.801h14.801zm14.801-73.996h14.801v14.801l-14.809-0.003907zm103.6 14.801-14.809-0.003907v-14.801h14.801zm-29.598 0-14.809-0.003907v-14.801h14.801zm-29.598 0-14.812-0.003907v-14.801h14.801zm-44.398-44.398h14.801v14.801l-14.812-0.003906zm-14.801 44.398-14.809-0.003907v-14.801h14.801zm-44.406-74h14.801v14.801l-14.801-0.003906z"/>
  <path d="m460.11 451.2 93.992-132.92 17.094-24.168 17.086-24.168c4.5781-6.4766 5.3555-14.906 2.0352-22.109s-10.23-12.09-18.129-12.816c-7.8984-0.72656-15.586 2.8164-20.164 9.293l-17.078 24.168-17.094 24.168-93.984 132.93c-0.66406 0.9375-1.1016 2.0195-1.2734 3.1523l-5.0078 32.715c-0.42578 2.7695 0.75391 5.543 3.0391 7.1602 2.2891 1.6172 5.293 1.8047 7.7617 0.48438l29.168-15.621h0.003907c1.0156-0.54297 1.8906-1.3203 2.5508-2.2656zm74.094-156.05 8.5469-12.09 12.094 8.5547-8.5469 12.082-6.0469-4.2695zm29.91-42.297c2.3633-3.3359 6.9805-4.125 10.32-1.7656 3.3359 2.3633 4.125 6.9844 1.7617 10.32l-12.816 18.121-6.0469-4.2773-6.0469-4.2695zm-129.65 196.19 2.5078-16.352 88.691-125.46 6.0469 4.2773 6.0391 4.2695-88.719 125.45z"/>
 </g>
</svg>
